<svg width="15" height="11" viewBox="0 0 15 11" fill="none" xmlns="http://www.w3.org/2000/svg">
<path d="M0 0.152832H0.880966V10.8474H0V0.152832ZM1.42015 10.8474H1.91613V0.152832H1.42015V10.8474ZM2.27362 10.8474H2.76861V0.152832H2.27362V10.8474ZM3.41976 10.8474H4.50403V0.152832H3.41976V10.8474ZM5.37223 10.8474H5.91436V0.152832H5.37223V10.8474ZM6.75506 10.8474H9.00216V0.152832H6.75506V10.8474ZM12.6105 10.8474H13.349V0.152832H12.6105V10.8474ZM13.9933 0.152832V10.8474H15V0.152832H13.9933ZM9.90375 10.8474H10.387V0.152832H9.90375V10.8474ZM11.0794 10.8474H11.5626V0.152832H11.0794V10.8474Z" fill="#212B36"/>
</svg>
