<svg width="17" height="17" viewBox="0 0 17 17" fill="none" xmlns="http://www.w3.org/2000/svg">
<path d="M14.9798 12.3755C14.8684 13.2224 14.4525 13.9997 13.8098 14.5624C13.167 15.125 12.3415 15.4345 11.4873 15.433C6.52481 15.433 2.48731 11.3955 2.48731 6.43298C2.48578 5.57879 2.79524 4.75324 3.35789 4.11054C3.92055 3.46783 4.69792 3.05192 5.54481 2.94048C5.75897 2.91433 5.97584 2.95814 6.16305 3.06538C6.35026 3.17261 6.49777 3.33752 6.58356 3.53548L7.90356 6.48235V6.48985C7.96924 6.64139 7.99637 6.80683 7.98251 6.9714C7.96866 7.13597 7.91427 7.29456 7.82419 7.43298C7.81294 7.44985 7.80106 7.46548 7.78856 7.4811L6.48731 9.0236C6.95544 9.97485 7.95044 10.9611 8.91419 11.4305L10.4354 10.1361C10.4504 10.1235 10.466 10.1119 10.4823 10.1011C10.6206 10.0089 10.7797 9.95255 10.9453 9.93727C11.1108 9.92199 11.2776 9.94823 11.4304 10.0136L11.4386 10.0174L14.3829 11.3367C14.5812 11.4222 14.7466 11.5696 14.8541 11.7568C14.9617 11.9441 15.0058 12.1611 14.9798 12.3755Z" fill="#212B36" fill-opacity="0.7"/>
</svg>
