<svg width="28" height="28" viewBox="0 0 28 28" fill="none" xmlns="http://www.w3.org/2000/svg">
<g clip-path="url(#clip0_663_33981)">
<path d="M11.397 3.19131C11.397 1.43378 9.96718 0.00390625 8.20959 0.00390625C6.452 0.00390625 5.02213 1.43378 5.02213 3.19131C5.02213 4.94852 6.45145 6.37817 8.20855 6.37872H8.21063C9.96772 6.37817 11.397 4.94857 11.397 3.19131Z" fill="#CC003F"/>
<path d="M13.3415 10.2566C13.3415 8.11839 11.602 6.37891 9.46383 6.37891H9.02995V11.4798H7.38919V6.37891H6.95531C4.81712 6.37891 3.07764 8.11845 3.07764 10.2566V14.2518H13.3415V10.2566Z" fill="#CC003F"/>
<path d="M0.00305487 27.9967H28V19.7207H0.000976562L0.00305487 27.9967Z" fill="#CC003F"/>
<path d="M0 15.8926L0.000546922 18.0805H28V15.8926H0Z" fill="#CC003F"/>
<path d="M16.9996 9.87109H26.0861V14.2511H16.9996V9.87109Z" fill="#CC003F"/>
</g>
<defs>
<clipPath id="clip0_663_33981">
<rect width="28" height="28" fill="white"/>
</clipPath>
</defs>
</svg>
