<svg width="16" height="16" viewBox="0 0 16 16" fill="none" xmlns="http://www.w3.org/2000/svg">
<path fill-rule="evenodd" clip-rule="evenodd" d="M12.3148 4.04809C12.3718 3.99115 12.417 3.92354 12.4479 3.84911C12.4788 3.77469 12.4947 3.69491 12.4947 3.61433C12.4948 3.53376 12.479 3.45396 12.4482 3.3795C12.4174 3.30504 12.3722 3.23737 12.3153 3.18036C12.2583 3.12335 12.1907 3.07811 12.1163 3.04723C12.0419 3.01635 11.9621 3.00043 11.8815 3.00038C11.801 3.00033 11.7212 3.01615 11.6467 3.04694C11.5722 3.07773 11.5046 3.12288 11.4476 3.17982L7.74729 6.88009L4.04809 3.17982C3.93295 3.06468 3.77679 3 3.61396 3C3.45113 3 3.29496 3.06468 3.17982 3.17982C3.06468 3.29496 3 3.45113 3 3.61396C3 3.77679 3.06468 3.93295 3.17982 4.04809L6.88009 7.74729L3.17982 11.4465C3.12281 11.5035 3.07759 11.5712 3.04673 11.6457C3.01588 11.7202 3 11.8 3 11.8806C3 11.9613 3.01588 12.0411 3.04673 12.1156C3.07759 12.1901 3.12281 12.2577 3.17982 12.3148C3.29496 12.4299 3.45113 12.4946 3.61396 12.4946C3.69458 12.4946 3.77442 12.4787 3.84891 12.4478C3.9234 12.417 3.99108 12.3718 4.04809 12.3148L7.74729 8.61449L11.4476 12.3148C11.5627 12.4298 11.7188 12.4943 11.8815 12.4942C12.0443 12.4941 12.2003 12.4294 12.3153 12.3142C12.4303 12.1991 12.4948 12.043 12.4947 11.8802C12.4946 11.7175 12.4299 11.5615 12.3148 11.4465L8.61449 7.74729L12.3148 4.04809Z" fill="#758599" fill-opacity="0.8"/>
</svg>
