<svg width="16" height="16" viewBox="0 0 16 16" fill="none" xmlns="http://www.w3.org/2000/svg">
<path fill-rule="evenodd" clip-rule="evenodd" d="M2.37077 9.39329C6.20969 10.0591 10.0487 10.0367 13.8876 9.39329V4.05619C13.8876 3.99538 13.8679 3.93626 13.8314 3.88765L11.3034 0.516862C11.2503 0.446143 11.167 0.40448 11.0787 0.40448H3.21347C2.98998 0.40448 2.7756 0.493266 2.61758 0.651289C2.45956 0.809379 2.37077 1.02369 2.37077 1.24718V7.7079C2.37077 8.12507 2.27295 8.47866 2.27295 8.76053C2.27295 9.15019 2.37077 9.39329 2.37077 9.39329Z" fill="#D8DFE3"/>
<path fill-rule="evenodd" clip-rule="evenodd" d="M0.685364 8.66504V14.7303C0.685364 14.9538 0.77415 15.1682 0.932173 15.3262C1.0902 15.4842 1.30458 15.573 1.52806 15.573H14.4494C14.6729 15.573 14.8872 15.4842 15.0453 15.3262C15.2033 15.1682 15.2921 14.9538 15.2921 14.7303C15.2921 13.6539 15.2921 11.3123 15.2921 10.236C15.2921 10.0125 15.2033 9.7981 15.0453 9.64007C14.8872 9.48205 14.6729 9.39326 14.4494 9.39326H1.80898C1.4506 9.39326 0.685364 8.66504 0.685364 8.66504Z" fill="#1FB35B"/>
<path fill-rule="evenodd" clip-rule="evenodd" d="M1.52806 9.39328C1.27161 9.39328 1.0844 9.28926 0.9466 9.16117C0.816959 9.04063 0.685364 8.8282 0.685364 8.55058C0.685364 8.3724 0.77415 8.11272 0.932173 7.95469C1.0902 7.79667 1.30458 7.70789 1.52806 7.70789H2.37076V9.39328C2.37076 9.39328 2.44296 9.39328 1.52806 9.39328Z" fill="#198043"/>
<path fill-rule="evenodd" clip-rule="evenodd" d="M11.0787 0.40448V3.21349C11.0787 3.43697 11.1675 3.65136 11.3255 3.80938C11.4835 3.9674 11.6978 4.05619 11.9214 4.05619H13.8876C13.8876 3.99538 13.8679 3.93626 13.8315 3.88765L11.3034 0.516862C11.2503 0.446143 11.1671 0.40448 11.0787 0.40448Z" fill="#AFBDC7"/>
<path fill-rule="evenodd" clip-rule="evenodd" d="M4.89884 4.33711H8.55055C8.70554 4.33711 8.8314 4.21125 8.8314 4.05619C8.8314 3.90113 8.70554 3.77527 8.55055 3.77527H4.89884C4.74379 3.77527 4.61792 3.90113 4.61792 4.05619C4.61792 4.21125 4.74379 4.33711 4.89884 4.33711Z" fill="#1FB35B"/>
<path fill-rule="evenodd" clip-rule="evenodd" d="M4.89884 6.02248H11.3595C11.5145 6.02248 11.6404 5.89661 11.6404 5.74155C11.6404 5.5865 11.5145 5.46063 11.3595 5.46063H4.89884C4.74379 5.46063 4.61792 5.5865 4.61792 5.74155C4.61792 5.89661 4.74379 6.02248 4.89884 6.02248Z" fill="#1FB35B"/>
<path fill-rule="evenodd" clip-rule="evenodd" d="M4.89884 7.7079H11.3595C11.5145 7.7079 11.6404 7.58203 11.6404 7.42698C11.6404 7.27192 11.5145 7.14606 11.3595 7.14606H4.89884C4.74379 7.14606 4.61792 7.27192 4.61792 7.42698C4.61792 7.58203 4.74379 7.7079 4.89884 7.7079Z" fill="#1FB35B"/>
<path fill-rule="evenodd" clip-rule="evenodd" d="M9.55377 11.183L10.6774 13.992C10.72 14.0987 10.8233 14.1686 10.9381 14.1686C11.053 14.1686 11.1563 14.0987 11.199 13.992L12.3226 11.183C12.3802 11.0391 12.3101 10.8754 12.1661 10.8179C12.0221 10.7603 11.8585 10.8304 11.8009 10.9743L10.9381 13.1313L10.0754 10.9743C10.0178 10.8304 9.85417 10.7603 9.71024 10.8179C9.56631 10.8754 9.49619 11.0391 9.55377 11.183Z" fill="#D8DFE3"/>
<path fill-rule="evenodd" clip-rule="evenodd" d="M5.19969 10.798H5.03918C4.26349 10.798 3.6347 11.4268 3.6347 12.2025V12.7643C3.6347 13.54 4.26349 14.1688 5.03918 14.1688H5.19969C5.70079 14.1688 6.15585 13.8765 6.36417 13.4208C6.39322 13.3573 6.39895 13.3453 6.41763 13.3039C6.49118 13.1406 6.40239 12.9915 6.29695 12.9386C6.12086 12.85 5.96109 12.9481 5.90668 13.0703C5.89017 13.1074 5.85322 13.1872 5.85322 13.1872C5.73626 13.443 5.48095 13.607 5.19969 13.607H5.03918C4.57374 13.607 4.19648 13.2297 4.19648 12.7643V12.2025C4.19648 11.7371 4.57374 11.3598 5.03918 11.3598H5.19969C5.48095 11.3598 5.73626 11.5239 5.85322 11.7796C5.85322 11.7796 5.88747 11.8563 5.90668 11.8966C5.99109 12.0735 6.19064 12.0986 6.31684 12.0166C6.40549 11.9589 6.48922 11.8196 6.41763 11.663C6.36417 11.5461 6.36417 11.5461 6.36417 11.5461C6.15585 11.0903 5.70079 10.798 5.19969 10.798Z" fill="#D8DFE3"/>
<path fill-rule="evenodd" clip-rule="evenodd" d="M6.86511 13.1872V13.3264C6.86511 13.5498 6.95383 13.764 7.11172 13.9219C7.26967 14.0799 7.48385 14.1686 7.7072 14.1686H8.34037C8.56372 14.1686 8.7779 14.0799 8.93585 13.9219C9.09381 13.764 9.18253 13.5498 9.18253 13.3264C9.18253 13.2887 9.18253 13.2512 9.18253 13.2146C9.18253 12.8701 8.97273 12.5602 8.65278 12.4322L7.63136 12.0237C7.50785 11.9743 7.42689 11.8547 7.42689 11.7217V11.6405C7.42689 11.566 7.45648 11.4945 7.50913 11.4419C7.56185 11.3892 7.63325 11.3596 7.70774 11.3596H8.33983C8.41433 11.3596 8.48579 11.3892 8.53844 11.4419C8.59109 11.4945 8.62068 11.566 8.62068 11.6405V11.7792C8.62068 11.8585 8.65574 11.9302 8.691 11.9666C8.74581 12.0289 8.82455 12.0618 8.90161 12.0618C9.03833 12.0618 9.18253 11.9563 9.18253 11.7792V11.6405C9.18253 11.417 9.09374 11.2026 8.93572 11.0446C8.77763 10.8866 8.56332 10.7978 8.33983 10.7978H7.70781C7.48426 10.7978 7.26994 10.8866 7.11192 11.0446C6.9539 11.2026 6.86511 11.417 6.86511 11.6405V11.7217C6.86511 12.0844 7.08597 12.4106 7.42271 12.5453L8.44412 12.9539C8.55078 12.9965 8.62068 13.0998 8.62068 13.2146V13.3264C8.62068 13.4008 8.59116 13.4721 8.53857 13.5247C8.48606 13.5773 8.41473 13.6068 8.34037 13.6068H7.7072C7.63284 13.6068 7.56158 13.5773 7.509 13.5247C7.45642 13.4721 7.42689 13.4008 7.42689 13.3265C7.42689 13.3264 7.42689 13.3264 7.42689 13.1871C7.42689 13.0019 7.27588 12.9044 7.15089 12.9044C7.03237 12.9044 6.86511 12.9963 6.86511 13.1855V13.1872Z" fill="#D8DFE3"/>
</svg>
