<svg width="54" height="54" viewBox="0 0 54 54" fill="none" xmlns="http://www.w3.org/2000/svg">
<path fill-rule="evenodd" clip-rule="evenodd" d="M27 0.75C12.5258 0.75 0.75 12.5258 0.75 27C0.75 41.4742 12.5255 53.25 27 53.25C41.4745 53.25 53.25 41.4743 53.25 27C53.25 12.5257 41.4744 0.75 27 0.75ZM21.8811 12.4732C21.8812 12.2469 21.9711 12.0299 22.131 11.8698C22.291 11.7098 22.508 11.6198 22.7343 11.6197H31.2655C31.4919 11.6202 31.7088 11.7104 31.8688 11.8706C32.0287 12.0308 32.1187 12.2478 32.1189 12.4742V14.5842H21.8811V12.4732ZM35.9085 41.1594C35.8867 41.4922 35.7385 41.8041 35.4943 42.0311C35.2501 42.2582 34.9282 42.3833 34.5948 42.3809H19.3062C18.9729 42.38 18.6522 42.253 18.4086 42.0255C18.165 41.798 18.0165 41.4867 17.993 41.1542L16.6853 22.0166H37.3039L35.908 41.1594H35.9085ZM39.3067 20.2837H14.6933V18.3007C14.6937 17.7749 14.9028 17.2707 15.2745 16.8989C15.6463 16.5271 16.1505 16.318 16.6763 16.3175L37.3234 16.3169C37.8493 16.3176 38.3534 16.5269 38.7251 16.8988C39.0968 17.2707 39.3059 17.7749 39.3063 18.3008V20.2835L39.3067 20.2837ZM23.0369 37.8187V25.667C23.0369 25.4372 23.1283 25.2168 23.2909 25.0544C23.4534 24.892 23.6738 24.8008 23.9036 24.8008C24.1334 24.8009 24.3538 24.8923 24.5162 25.0548C24.6786 25.2174 24.7699 25.4378 24.7698 25.6676V37.8187C24.7715 37.9336 24.7504 38.0477 24.7077 38.1544C24.6649 38.2611 24.6014 38.3582 24.5208 38.44C24.4401 38.5219 24.344 38.587 24.238 38.6313C24.132 38.6757 24.0182 38.6986 23.9033 38.6986C23.7884 38.6986 23.6746 38.6757 23.5686 38.6313C23.4626 38.587 23.3665 38.5219 23.2859 38.44C23.2052 38.3582 23.1417 38.2611 23.099 38.1544C23.0562 38.0477 23.0351 37.9336 23.0369 37.8187ZM29.2192 37.8187V25.667C29.2227 25.4395 29.3156 25.2225 29.4778 25.063C29.64 24.9034 29.8584 24.814 30.0859 24.8141C30.3134 24.8142 30.5318 24.9037 30.6938 25.0634C30.8559 25.2231 30.9486 25.4401 30.9521 25.6676V37.8192C30.9546 37.9346 30.934 38.0493 30.8916 38.1566C30.8492 38.2639 30.7858 38.3617 30.7051 38.4442C30.6243 38.5267 30.528 38.5922 30.4216 38.6369C30.3152 38.6817 30.201 38.7047 30.0856 38.7047C29.9702 38.7047 29.856 38.6817 29.7496 38.6369C29.6432 38.5922 29.5469 38.5267 29.4662 38.4442C29.3854 38.3617 29.322 38.2639 29.2796 38.1566C29.2372 38.0493 29.2166 37.9346 29.2192 37.8192V37.8187Z" fill="#C33D3D"/>
</svg>
