<svg width="17" height="16" viewBox="0 0 17 16" fill="none" xmlns="http://www.w3.org/2000/svg">
<path d="M12.9 3H4.1C3.495 3 3.0055 3.5625 3.0055 4.25L3 11.75C3 12.4375 3.495 13 4.1 13H12.9C13.505 13 14 12.4375 14 11.75V4.25C14 3.5625 13.505 3 12.9 3ZM12.68 5.65625L8.7915 8.41875C8.6155 8.54375 8.3845 8.54375 8.2085 8.41875L4.32 5.65625C4.26485 5.62107 4.21656 5.57354 4.17804 5.51653C4.13952 5.45953 4.11158 5.39424 4.09592 5.32461C4.08025 5.25498 4.07718 5.18246 4.08689 5.11144C4.0966 5.04042 4.11888 4.97238 4.1524 4.91144C4.18592 4.85049 4.22998 4.79791 4.2819 4.75687C4.33382 4.71583 4.39253 4.68719 4.45447 4.67269C4.51642 4.65818 4.58031 4.6581 4.64228 4.67247C4.70424 4.68683 4.76301 4.71533 4.815 4.75625L8.5 7.375L12.185 4.75625C12.237 4.71533 12.2958 4.68683 12.3577 4.67247C12.4197 4.6581 12.4836 4.65818 12.5455 4.67269C12.6075 4.68719 12.6662 4.71583 12.7181 4.75687C12.77 4.79791 12.8141 4.85049 12.8476 4.91144C12.8811 4.97238 12.9034 5.04042 12.9131 5.11144C12.9228 5.18246 12.9198 5.25498 12.9041 5.32461C12.8884 5.39424 12.8605 5.45953 12.822 5.51653C12.7834 5.57354 12.7352 5.62107 12.68 5.65625Z" fill="#212B36" fill-opacity="0.7"/>
</svg>
