<svg width="18" height="18" viewBox="0 0 18 18" fill="none" xmlns="http://www.w3.org/2000/svg">
<g clip-path="url(#clip0_1894_1779)">
<path d="M17.4375 15.1879H9.5625C9.252 15.1879 9 14.9359 9 14.6254C9 14.3149 9 3.68587 9 3.37537C9 3.06487 9.252 2.81287 9.5625 2.81287H17.4375C17.748 2.81287 18 3.06487 18 3.37537V14.6254C18 14.9359 17.748 15.1879 17.4375 15.1879Z" fill="#ECEFF1"/>
<path d="M11.8125 6.18787H9.5625C9.252 6.18787 9 5.93587 9 5.62537C9 5.31487 9.252 5.06287 9.5625 5.06287H11.8125C12.123 5.06287 12.375 5.31487 12.375 5.62537C12.375 5.93587 12.123 6.18787 11.8125 6.18787Z" fill="#388E3C"/>
<path d="M11.8125 8.43787H9.5625C9.252 8.43787 9 8.18587 9 7.87537C9 7.56487 9.252 7.31287 9.5625 7.31287H11.8125C12.123 7.31287 12.375 7.56487 12.375 7.87537C12.375 8.18587 12.123 8.43787 11.8125 8.43787Z" fill="#388E3C"/>
<path d="M11.8125 10.6879H9.5625C9.252 10.6879 9 10.4359 9 10.1254C9 9.81487 9.252 9.56287 9.5625 9.56287H11.8125C12.123 9.56287 12.375 9.81487 12.375 10.1254C12.375 10.4359 12.123 10.6879 11.8125 10.6879Z" fill="#388E3C"/>
<path d="M11.8125 12.9379H9.5625C9.252 12.9379 9 12.6859 9 12.3754C9 12.0649 9.252 11.8129 9.5625 11.8129H11.8125C12.123 11.8129 12.375 12.0649 12.375 12.3754C12.375 12.6859 12.123 12.9379 11.8125 12.9379Z" fill="#388E3C"/>
<path d="M15.1875 6.18787H14.0625C13.752 6.18787 13.5 5.93587 13.5 5.62537C13.5 5.31487 13.752 5.06287 14.0625 5.06287H15.1875C15.498 5.06287 15.75 5.31487 15.75 5.62537C15.75 5.93587 15.498 6.18787 15.1875 6.18787Z" fill="#388E3C"/>
<path d="M15.1875 8.43787H14.0625C13.752 8.43787 13.5 8.18587 13.5 7.87537C13.5 7.56487 13.752 7.31287 14.0625 7.31287H15.1875C15.498 7.31287 15.75 7.56487 15.75 7.87537C15.75 8.18587 15.498 8.43787 15.1875 8.43787Z" fill="#388E3C"/>
<path d="M15.1875 10.6879H14.0625C13.752 10.6879 13.5 10.4359 13.5 10.1254C13.5 9.81487 13.752 9.56287 14.0625 9.56287H15.1875C15.498 9.56287 15.75 9.81487 15.75 10.1254C15.75 10.4359 15.498 10.6879 15.1875 10.6879Z" fill="#388E3C"/>
<path d="M15.1875 12.9379H14.0625C13.752 12.9379 13.5 12.6859 13.5 12.3754C13.5 12.0649 13.752 11.8129 14.0625 11.8129H15.1875C15.498 11.8129 15.75 12.0649 15.75 12.3754C15.75 12.6859 15.498 12.9379 15.1875 12.9379Z" fill="#388E3C"/>
<path d="M9.92138 0.692267C9.79313 0.585392 9.621 0.539267 9.459 0.573017L0.459 2.26052C0.192375 2.31002 0 2.54177 0 2.81289V15.1879C0 15.4579 0.192375 15.6908 0.459 15.7403L9.459 17.4278C9.49275 17.4345 9.52763 17.4379 9.5625 17.4379C9.693 17.4379 9.82013 17.3929 9.92138 17.3085C10.0508 17.2016 10.125 17.0419 10.125 16.8754V1.12539C10.125 0.957767 10.0508 0.799142 9.92138 0.692267Z" fill="#2E7D32"/>
<path d="M7.73553 10.8802L5.9569 8.84737L7.75578 6.53437C7.94703 6.28912 7.90203 5.93587 7.6579 5.74462C7.41378 5.55337 7.06053 5.59837 6.86815 5.84249L5.20203 7.98449L3.79803 6.38024C3.59215 6.14399 3.23665 6.12262 3.0049 6.32737C2.7709 6.53212 2.74728 6.88762 2.95203 7.12049L4.4989 8.88899L2.93065 10.905C2.7394 11.1502 2.7844 11.5035 3.02853 11.6947C3.13203 11.7746 3.25465 11.8129 3.37503 11.8129C3.54265 11.8129 3.70803 11.7386 3.8194 11.5957L5.25378 9.75074L6.88953 11.6194C7.0009 11.7476 7.15615 11.8129 7.31253 11.8129C7.44415 11.8129 7.57578 11.7667 7.68265 11.6734C7.91665 11.4686 7.94028 11.1131 7.73553 10.8802Z" fill="#FAFAFA"/>
</g>
<defs>
<clipPath id="clip0_1894_1779">
<rect width="18" height="18" fill="white"/>
</clipPath>
</defs>
</svg>
