<svg width="14" height="14" viewBox="0 0 14 14" fill="none" xmlns="http://www.w3.org/2000/svg">
<g clip-path="url(#clip0_1991_864)">
<path d="M9.79125 1.44293L10.5117 0.270433C10.6797 -0.0049006 11.039 -0.0900672 11.3138 0.0790994C11.5885 0.247683 11.6743 0.606433 11.5051 0.881183L10.7847 2.05368C10.675 2.23335 10.4831 2.33193 10.2871 2.33193C10.1827 2.33193 10.0777 2.30393 9.98259 2.2456C9.70784 2.07702 9.62209 1.71768 9.79125 1.44293ZM3.16575 2.0531C3.27542 2.23277 3.46792 2.33193 3.66392 2.33193C3.76775 2.33193 3.87275 2.30393 3.96784 2.24618C4.24259 2.0776 4.32892 1.71885 4.16034 1.4441L3.44109 0.271016C3.2725 -0.00373391 2.91317 -0.0894839 2.639 0.0785161C2.36425 0.247099 2.27792 0.605849 2.4465 0.880599L3.16575 2.0531ZM1.89059 3.3411L0.841754 2.83885C0.552421 2.69827 0.201838 2.82193 0.0641712 3.11302C-0.0752455 3.40352 0.0478378 3.75177 0.338338 3.8906L1.38717 4.39285C1.46825 4.43193 1.554 4.4506 1.63859 4.4506C1.85617 4.4506 2.065 4.32868 2.16475 4.11927C2.30417 3.82877 2.18109 3.47993 1.89059 3.3411ZM6.92067 2.33368C3.70417 2.38677 1.155 5.87277 2.9015 9.23043C3.16692 9.74027 3.56067 10.1673 3.98359 10.5563C4.144 10.7039 4.26825 10.8865 4.37442 11.0825H6.41667V8.05852C5.73942 7.81702 5.25 7.17535 5.25 6.41585C5.25 6.09327 5.51075 5.83252 5.83334 5.83252C6.15592 5.83252 6.41667 6.09327 6.41667 6.41585C6.41667 6.73843 6.678 6.99918 7 6.99918C7.322 6.99918 7.58334 6.73785 7.58334 6.41585C7.58334 6.09385 7.84409 5.83252 8.16667 5.83252C8.48925 5.83252 8.75 6.09327 8.75 6.41585C8.75 7.17535 8.26059 7.81702 7.58334 8.05852V11.0825H9.60634C9.73934 10.8544 9.91084 10.6392 10.1354 10.4519C10.5198 10.1311 10.8815 9.77352 11.1038 9.32493C12.117 7.27568 11.7151 5.09052 10.2719 3.67185C9.373 2.78752 8.18242 2.31443 6.92067 2.33368ZM4.662 12.4119C4.61534 13.2671 5.25584 13.9998 6.11217 13.9998H7.87442C8.68 13.9998 9.33275 13.347 9.33275 12.5414V12.2498H4.65559C4.65559 12.3046 4.6655 12.3559 4.662 12.4119ZM13.9493 3.09143C13.8163 2.79802 13.4715 2.6656 13.1781 2.79977L12.0511 3.30843C11.7571 3.44085 11.6264 3.78618 11.7594 4.0796C11.8568 4.29543 12.0686 4.42318 12.2914 4.42318C12.3713 4.42318 12.453 4.40685 12.5306 4.37127L13.6576 3.8626C13.9516 3.73018 14.0823 3.38485 13.9493 3.09143Z" fill="#3C76F1"/>
</g>
<defs>
<clipPath id="clip0_1991_864">
<rect width="14" height="14" fill="white"/>
</clipPath>
</defs>
</svg>
