<svg width="28" height="28" viewBox="0 0 28 28" fill="none" xmlns="http://www.w3.org/2000/svg">
<circle cx="14" cy="14" r="13.5" fill="white" stroke="#F2F2F2"/>
<path d="M11 19.2505C11.825 19.2505 12.5 18.5755 12.5 17.7505C12.5 17.7505 12.5 11.0755 12.5 10.2505C12.5 9.42549 11.825 8.75049 11 8.75049C10.175 8.75049 9.5 9.42549 9.5 10.2505V17.7505C9.5 18.5755 10.175 19.2505 11 19.2505ZM15.5 10.2505V17.7505C15.5 18.5755 16.175 19.2505 17 19.2505C17.825 19.2505 18.5 18.5755 18.5 17.7505V10.2505C18.5 9.42549 17.825 8.75049 17 8.75049C16.175 8.75049 15.5 9.42549 15.5 10.2505Z" fill="#003473"/>
</svg>
