<svg width="17" height="17" viewBox="0 0 17 17" fill="none" xmlns="http://www.w3.org/2000/svg">
<path d="M13.4873 14.9329H10.3998C10.9201 14.4683 11.4106 13.9715 11.8686 13.4454C13.5811 11.4766 14.4873 9.39536 14.4873 7.43286C14.4873 5.97417 13.9078 4.57522 12.8764 3.54377C11.8449 2.51232 10.446 1.93286 8.98731 1.93286C7.52861 1.93286 6.12967 2.51232 5.09822 3.54377C4.06677 4.57522 3.4873 5.97417 3.4873 7.43286C3.4873 9.39536 4.39355 11.4766 6.1123 13.4454C6.56862 13.973 7.05927 14.4699 7.58105 14.9329H4.4873C4.3547 14.9329 4.22752 14.9855 4.13375 15.0793C4.03998 15.1731 3.9873 15.3003 3.9873 15.4329C3.9873 15.5655 4.03998 15.6926 4.13375 15.7864C4.22752 15.8802 4.3547 15.9329 4.4873 15.9329H13.4873C13.6199 15.9329 13.7471 15.8802 13.8409 15.7864C13.9346 15.6926 13.9873 15.5655 13.9873 15.4329C13.9873 15.3003 13.9346 15.1731 13.8409 15.0793C13.7471 14.9855 13.6199 14.9329 13.4873 14.9329ZM8.98731 5.43286C9.38287 5.43286 9.76955 5.55016 10.0984 5.76992C10.4273 5.98969 10.6837 6.30204 10.8351 6.66749C10.9864 7.03295 11.026 7.43508 10.9489 7.82304C10.8717 8.211 10.6812 8.56737 10.4015 8.84707C10.1218 9.12678 9.76545 9.31726 9.37749 9.39443C8.98952 9.4716 8.58739 9.432 8.22194 9.28062C7.85649 9.12925 7.54413 8.8729 7.32437 8.544C7.1046 8.2151 6.9873 7.82842 6.9873 7.43286C6.9873 6.90243 7.19802 6.39372 7.57309 6.01865C7.94816 5.64357 8.45687 5.43286 8.98731 5.43286Z" fill="#212B36" fill-opacity="0.7"/>
</svg>
