<svg width="44" height="45" viewBox="0 0 44 45" fill="none" xmlns="http://www.w3.org/2000/svg">
<path d="M33 4.625H9.16667C6.3855 4.625 4.125 6.8855 4.125 9.66667V33.5C4.125 36.2812 6.3855 38.5417 9.16667 38.5417H23.8333C24.1982 38.5417 24.5483 38.3968 24.805 38.1383L37.6383 25.305C37.8968 25.0465 38.0417 24.6963 38.0417 24.3333V9.66667C38.0417 6.8855 35.7812 4.625 33 4.625Z" fill="#E3E3E3"/>
<path d="M29.3331 40.3753C35.1551 40.3753 39.8748 35.6557 39.8748 29.8337C39.8748 24.0117 35.1551 19.292 29.3331 19.292C23.5111 19.292 18.7914 24.0117 18.7914 29.8337C18.7914 35.6557 23.5111 40.3753 29.3331 40.3753Z" fill="#A5A5A5"/>
<path d="M27.0417 11.3497V4.625H15.125V11.3497C15.125 13.3462 16.918 14.9705 19.1198 14.9705H23.0487C25.2505 14.9705 27.0435 13.3462 27.0435 11.3497H27.0417Z" fill="#A5A5A5"/>
<path d="M32.8976 31.4545L31.2772 29.8341L32.8976 28.2136C33.4343 27.6769 33.4343 26.8058 32.8976 26.2691C32.3609 25.7324 31.4898 25.7324 30.9531 26.2691L29.3326 27.8896L27.7122 26.2691C27.1755 25.7324 26.3043 25.7324 25.7676 26.2691C25.231 26.8058 25.231 27.6769 25.7676 28.2136L27.3881 29.8341L25.7676 31.4545C25.231 31.9912 25.231 32.8624 25.7676 33.3991C26.3043 33.9358 27.1755 33.9358 27.7122 33.3991L29.3326 31.7786L30.9531 33.3991C31.4898 33.9358 32.3609 33.9358 32.8976 33.3991C33.4343 32.8624 33.4343 31.9912 32.8976 31.4545Z" fill="#E3E3E3"/>
</svg>
