<svg width="18" height="18" viewBox="0 0 18 18" fill="none" xmlns="http://www.w3.org/2000/svg">
<path d="M11.888 0H2.55954C2.29983 0 2.08929 0.210536 2.08929 0.619071V17.6786C2.08929 17.7895 2.29983 18 2.55954 18H15.4405C15.7002 18 15.9107 17.7895 15.9107 17.6786V4.1715C15.9107 3.94779 15.8808 3.87579 15.8281 3.82275L12.088 0.0826071C12.0349 0.0298929 11.9629 0 11.888 0Z" fill="#E9E9E0"/>
<path d="M12.0536 0.0485229V3.85713H15.8622L12.0536 0.0485229Z" fill="#D9D7CA"/>
<path d="M6.2724 10.7113C6.16054 10.7113 6.05318 10.675 5.96157 10.6065C5.62697 10.3555 5.58197 10.0762 5.60318 9.88589C5.66168 9.3626 6.30872 8.81489 7.52693 8.25689C8.01036 7.19746 8.47032 5.89214 8.7445 4.80153C8.42372 4.10339 8.11193 3.1976 8.33918 2.66628C8.4189 2.48017 8.51822 2.33746 8.70368 2.27574C8.77697 2.25132 8.96211 2.22046 9.03025 2.22046C9.19225 2.22046 9.33465 2.42907 9.43557 2.55764C9.5304 2.67849 9.74543 2.93467 9.31568 4.74399C9.74897 5.63885 10.3629 6.55042 10.9511 7.17464C11.3725 7.09846 11.7351 7.05957 12.0305 7.05957C12.5338 7.05957 12.8389 7.17689 12.9633 7.4186C13.0661 7.61853 13.024 7.85221 12.8379 8.11289C12.6589 8.36328 12.412 8.49571 12.1243 8.49571C11.7335 8.49571 11.2783 8.24885 10.7708 7.76124C9.85889 7.95185 8.794 8.29192 7.93322 8.66832C7.6645 9.23853 7.40704 9.69785 7.16725 10.0347C6.83779 10.496 6.55365 10.7113 6.2724 10.7113ZM7.12804 9.06367C6.44115 9.44971 6.16118 9.76696 6.14093 9.94567C6.13772 9.97525 6.12904 10.053 6.27947 10.1681C6.32736 10.153 6.607 10.0254 7.12804 9.06367ZM11.5114 7.63589C11.7733 7.83742 11.8373 7.93932 12.0086 7.93932C12.0838 7.93932 12.2982 7.9361 12.3975 7.79757C12.4454 7.73039 12.4641 7.68732 12.4715 7.66417C12.4319 7.64328 12.3795 7.60085 12.0938 7.60085C11.9315 7.60117 11.7274 7.60824 11.5114 7.63589ZM9.11029 5.52024C8.88047 6.31546 8.57704 7.174 8.25079 7.95153C8.92257 7.69085 9.65286 7.46328 10.3388 7.30225C9.90486 6.79825 9.47125 6.16889 9.11029 5.52024ZM8.91518 2.80032C8.88368 2.81092 8.48768 3.36507 8.94604 3.83403C9.25107 3.15421 8.929 2.79582 8.91518 2.80032Z" fill="#CC4B4C"/>
<path d="M15.4405 18H2.55954C2.29983 18 2.08929 17.7895 2.08929 17.5297V12.5357H15.9107V17.5297C15.9107 17.7895 15.7002 18 15.4405 18Z" fill="#CC4B4C"/>
<path d="M5.58807 17.0357H5.06061V13.797H5.99211C6.12968 13.797 6.26596 13.8189 6.40064 13.8629C6.53532 13.9069 6.65618 13.9728 6.76322 14.0606C6.87025 14.1483 6.95671 14.2547 7.02261 14.3791C7.0885 14.5035 7.12161 14.6433 7.12161 14.7989C7.12161 14.9631 7.09364 15.1116 7.03804 15.245C6.98243 15.3784 6.90464 15.4906 6.805 15.5812C6.70536 15.6719 6.58514 15.7423 6.44468 15.7921C6.30421 15.8419 6.14864 15.8667 5.97893 15.8667H5.58775L5.58807 17.0357ZM5.58807 14.1969V15.48H6.0715C6.13579 15.48 6.19943 15.4691 6.26275 15.4469C6.32575 15.425 6.38361 15.389 6.43632 15.3392C6.48904 15.2894 6.53146 15.22 6.56361 15.1306C6.59575 15.0412 6.61182 14.9307 6.61182 14.7989C6.61182 14.7462 6.60443 14.6851 6.58997 14.6166C6.57518 14.5479 6.54529 14.482 6.49996 14.419C6.45432 14.356 6.39068 14.3032 6.30872 14.2608C6.22675 14.2184 6.11811 14.1972 5.98343 14.1972L5.58807 14.1969Z" fill="white"/>
<path d="M10.3562 15.3264C10.3562 15.5928 10.3275 15.8207 10.2703 16.0097C10.2131 16.1987 10.1408 16.3569 10.0527 16.4845C9.96465 16.6121 9.86598 16.7124 9.75605 16.7856C9.64612 16.8589 9.54005 16.9136 9.43751 16.9505C9.33498 16.9872 9.24112 17.0106 9.15626 17.0209C9.0714 17.0306 9.0084 17.0357 8.96726 17.0357H7.74133V13.797H8.71687C8.98944 13.797 9.2289 13.8404 9.43526 13.9265C9.64162 14.0127 9.81326 14.1281 9.94955 14.2714C10.0858 14.4148 10.1874 14.5784 10.2549 14.7613C10.3224 14.9445 10.3562 15.1329 10.3562 15.3264ZM8.79176 16.649C9.14919 16.649 9.40698 16.5349 9.56512 16.3064C9.72326 16.0779 9.80233 15.7468 9.80233 15.3132C9.80233 15.1785 9.78626 15.0451 9.75412 14.9133C9.72165 14.7815 9.65962 14.6623 9.56737 14.5552C9.47512 14.4482 9.34976 14.3617 9.19162 14.2959C9.03348 14.23 8.8284 14.1969 8.5764 14.1969H8.2688V16.649H8.79176Z" fill="white"/>
<path d="M11.657 14.1969V15.2164H13.0105V15.5767H11.657V17.0357H11.1208V13.797H13.1465V14.1969H11.657Z" fill="white"/>
</svg>
