<svg width="15" height="14" viewBox="0 0 15 14" fill="none" xmlns="http://www.w3.org/2000/svg">
<path d="M11.4062 3.09326H3.14844C2.72782 3.09326 2.32443 3.26035 2.02701 3.55777C1.72959 3.85519 1.5625 4.25858 1.5625 4.6792V8.99951C1.5625 9.40562 1.72383 9.7951 2.01099 10.0823C2.29816 10.3694 2.68764 10.5308 3.09375 10.5308H3.3125V11.6158C3.3125 11.9082 3.42866 12.1886 3.63541 12.3953C3.84217 12.6021 4.1226 12.7183 4.415 12.7183H10.085C10.3774 12.7183 10.6578 12.6021 10.8646 12.3953C11.0713 12.1886 11.1875 11.9082 11.1875 11.6158V10.5308H11.4062C11.8124 10.5308 12.2018 10.3694 12.489 10.0823C12.7762 9.7951 12.9375 9.40562 12.9375 8.99951V4.62451C12.9375 4.2184 12.7762 3.82892 12.489 3.54175C12.2018 3.25459 11.8124 3.09326 11.4062 3.09326ZM10.3125 11.6158C10.3123 11.676 10.2882 11.7338 10.2456 11.7764C10.203 11.819 10.1453 11.843 10.085 11.8433H4.415C4.35473 11.843 4.29699 11.819 4.25437 11.7764C4.21175 11.7338 4.18772 11.676 4.1875 11.6158V7.25826C4.18772 7.19799 4.21175 7.14025 4.25437 7.09763C4.29699 7.05502 4.35473 7.03098 4.415 7.03076H10.085C10.1453 7.03098 10.203 7.05502 10.2456 7.09763C10.2882 7.14025 10.3123 7.19799 10.3125 7.25826V11.6158ZM11.0234 5.71607C10.8896 5.72683 10.7557 5.69627 10.6397 5.62852C10.5238 5.56076 10.4314 5.45907 10.3751 5.33718C10.3188 5.21528 10.3012 5.07904 10.3248 4.94684C10.3483 4.81464 10.4119 4.69285 10.5068 4.5979C10.6018 4.50294 10.7236 4.43941 10.8558 4.41586C10.988 4.3923 11.1242 4.40987 11.2461 4.46619C11.368 4.52251 11.4697 4.61487 11.5374 4.7308C11.6052 4.84674 11.6358 4.98066 11.625 5.11451C11.6125 5.26989 11.5451 5.41575 11.4349 5.52597C11.3247 5.6362 11.1788 5.70359 11.0234 5.71607ZM9.65625 1.34326H4.84375C4.47571 1.34381 4.12013 1.47669 3.84193 1.71764C3.56372 1.9586 3.38144 2.29156 3.32836 2.65576H11.1716C11.1186 2.29156 10.9363 1.9586 10.6581 1.71764C10.3799 1.47669 10.0243 1.34381 9.65625 1.34326Z" fill="#11488A"/>
</svg>
