<svg width="16" height="15" viewBox="0 0 16 15" fill="none" xmlns="http://www.w3.org/2000/svg">
<path d="M10.1705 1.62715C11.0758 2.52737 11.6423 3.70904 11.7754 4.97448C11.9086 6.23993 11.6002 7.51241 10.9019 8.57907C11.0238 8.67997 11.1254 8.79096 11.2676 8.89186C11.4708 9.0533 11.745 9.2551 12.0904 9.48716C12.4358 9.72932 12.6593 9.88067 12.7609 9.96139C13.1875 10.2742 13.5024 10.5365 13.7157 10.7484C14.0408 11.0713 14.3252 11.4042 14.569 11.7574C14.823 12.1105 15.016 12.4536 15.1683 12.8067C15.3106 13.1599 15.3817 13.4928 15.3512 13.8157C15.3309 14.1386 15.209 14.411 14.9855 14.633C14.762 14.855 14.4878 14.9761 14.1627 14.9962C13.8478 15.0164 13.5024 14.9559 13.157 14.8045C12.8015 14.6633 12.446 14.4615 12.1006 14.2092C11.745 13.9671 11.4098 13.6846 11.0848 13.3617C10.8714 13.1498 10.6073 12.837 10.3026 12.4233C10.201 12.2921 10.0486 12.0702 9.82515 11.7574C9.60167 11.4345 9.41882 11.1823 9.25629 10.9704C9.09376 10.7686 8.96171 10.6172 8.80933 10.4659C7.75496 11.0143 6.5519 11.2141 5.37528 11.0362C4.19866 10.8584 3.10989 10.3122 2.26747 9.47707C0.0936227 7.30775 0.0936227 3.78638 2.26747 1.62715C2.78617 1.11132 3.40215 0.702107 4.08018 0.422908C4.75822 0.143708 5.48501 0 6.219 0C6.95299 0 7.67978 0.143708 8.35782 0.422908C9.03585 0.702107 9.65183 1.11132 10.1705 1.62715ZM8.73823 8.04431C9.40185 7.38033 9.77426 6.48267 9.77426 5.54707C9.77426 4.61146 9.40185 3.7138 8.73823 3.04982C8.40842 2.72126 8.01657 2.46057 7.58514 2.28269C7.15372 2.10482 6.6912 2.01326 6.22408 2.01326C5.75696 2.01326 5.29444 2.10482 4.86301 2.28269C4.43159 2.46057 4.03974 2.72126 3.70993 3.04982C3.37914 3.37742 3.11669 3.76663 2.93761 4.19515C2.75853 4.62368 2.66635 5.08309 2.66635 5.54707C2.66635 6.01104 2.75853 6.47046 2.93761 6.89898C3.11669 7.32751 3.37914 7.71672 3.70993 8.04431C4.03974 8.37288 4.43159 8.63357 4.86301 8.81144C5.29444 8.98931 5.75696 9.08087 6.22408 9.08087C6.6912 9.08087 7.15372 8.98931 7.58514 8.81144C8.01657 8.63357 8.40842 8.37288 8.73823 8.04431Z" fill="#4C5D70"/>
</svg>
